<svg width="50" height="50" viewBox="0 0 50 50" fill="none" xmlns="http://www.w3.org/2000/svg">
<path d="M33.5847 27.337L42.1784 18.7433" stroke="white" stroke-width="3" stroke-linecap="round" stroke-linejoin="round"/>
<path d="M22.6475 21.0867L28.8975 27.3367" stroke="white" stroke-width="3" stroke-linecap="round" stroke-linejoin="round"/>
<path d="M7.80635 31.2429L17.9626 21.0867" stroke="white" stroke-width="3" stroke-linecap="round" stroke-linejoin="round"/>
<path d="M44.5239 18.7434C45.8184 18.7434 46.8677 17.6941 46.8677 16.3997C46.8677 15.1052 45.8184 14.0559 44.5239 14.0559C43.2295 14.0559 42.1802 15.1052 42.1802 16.3997C42.1802 17.6941 43.2295 18.7434 44.5239 18.7434Z" stroke="white" stroke-width="3" stroke-linecap="round" stroke-linejoin="round"/>
<path d="M31.2453 32.0247C32.5397 32.0247 33.5891 30.9753 33.5891 29.6809C33.5891 28.3865 32.5397 27.3372 31.2453 27.3372C29.9509 27.3372 28.9016 28.3865 28.9016 29.6809C28.9016 30.9753 29.9509 32.0247 31.2453 32.0247Z" stroke="white" stroke-width="3" stroke-linecap="round" stroke-linejoin="round"/>
<path d="M20.304 21.0863C21.5984 21.0863 22.6478 20.037 22.6478 18.7426C22.6478 17.4481 21.5984 16.3988 20.304 16.3988C19.0096 16.3988 17.9603 17.4481 17.9603 18.7426C17.9603 20.037 19.0096 21.0863 20.304 21.0863Z" stroke="white" stroke-width="3" stroke-linecap="round" stroke-linejoin="round"/>
<path d="M5.46689 35.9312C6.76131 35.9312 7.81064 34.8818 7.81064 33.5874C7.81064 32.293 6.76131 31.2437 5.46689 31.2437C4.17247 31.2437 3.12314 32.293 3.12314 33.5874C3.12314 34.8818 4.17247 35.9312 5.46689 35.9312Z" stroke="white" stroke-width="3" stroke-linecap="round" stroke-linejoin="round"/>
</svg>
